<svg xmlns="http://www.w3.org/2000/svg" width="670" height="146" viewBox="0 0 670 146" role="img" aria-label="Devashish Harsh. Robotics systems engineer. Mechanical engineering, robotics and automation."><title>Devashish Harsh. Robotics systems engineer. Mechanical engineering, robotics and automation.</title><g fill="#57606a" transform="translate(0 15) scale(0.013000 -0.013000)"><path d="M82 0V700H297Q378 700 430.5 673.0Q483 646 509.0 599.5Q535 553 535 494Q535 425 499.5 372.5Q464 320 391 299L543 0H443L302 287H297H166V0ZM166 364H294Q374 364 411.5 400.5Q449 437 449 494Q449 554 412.5 589.0Q376 624 293 624H166Z" transform="translate(0.00 0)"/><path d="M300 -12Q215 -12 154.0 33.0Q93 78 60.5 159.5Q28 241 28 350Q28 459 60.5 540.5Q93 622 154.0 667.0Q215 712 300 712Q385 712 446.0 667.0Q507 622 539.5 540.5Q572 459 572 350Q572 241 539.5 159.5Q507 78 446.0 33.0Q385 -12 300 -12ZM300 67Q383 67 434.5 141.0Q486 215 486 350Q486 485 434.5 559.0Q383 633 300 633Q216 633 165.0 559.0Q114 485 114 350Q114 215 165.0 141.0Q216 67 300 67Z" transform="translate(707.69 0)"/><path d="M66 0V700H299Q408 700 463.0 650.0Q518 600 518 522Q518 461 485.0 421.5Q452 382 411 366V359Q460 343 497.0 301.0Q534 259 534 193Q534 139 507.5 95.5Q481 52 430.5 26.0Q380 0 307 0ZM150 398H293Q360 398 395.5 427.5Q431 457 431 513Q431 566 396.0 595.0Q361 624 290 624H150ZM150 77H298Q370 77 409.0 109.5Q448 142 448 201Q448 260 407.0 292.5Q366 325 296 325H150Z" transform="translate(1415.38 0)"/><path d="M300 -12Q215 -12 154.0 33.0Q93 78 60.5 159.5Q28 241 28 350Q28 459 60.5 540.5Q93 622 154.0 667.0Q215 712 300 712Q385 712 446.0 667.0Q507 622 539.5 540.5Q572 459 572 350Q572 241 539.5 159.5Q507 78 446.0 33.0Q385 -12 300 -12ZM300 67Q383 67 434.5 141.0Q486 215 486 350Q486 485 434.5 559.0Q383 633 300 633Q216 633 165.0 559.0Q114 485 114 350Q114 215 165.0 141.0Q216 67 300 67Z" transform="translate(2123.08 0)"/><path d="M258 0V624H70V700H530V624H342V0Z" transform="translate(2830.77 0)"/><path d="M99 0V73H258V627H99V700H501V627H342V73H501V0Z" transform="translate(3538.46 0)"/><path d="M305 -12Q220 -12 158.5 33.0Q97 78 64.5 159.0Q32 240 32 350Q32 459 64.5 540.5Q97 622 158.5 667.0Q220 712 305 712Q413 712 479.0 652.5Q545 593 556 494H463Q453 553 413.0 593.0Q373 633 305 633Q218 633 168.0 557.5Q118 482 118 350Q118 217 168.0 142.0Q218 67 305 67Q376 67 414.5 105.0Q453 143 463 203H556Q540 103 476.5 45.5Q413 -12 305 -12Z" transform="translate(4246.15 0)"/><path d="M307 -12Q233 -12 178.5 16.0Q124 44 94.5 94.0Q65 144 64 211H152Q153 151 192.5 107.5Q232 64 307 64Q376 64 413.5 97.5Q451 131 451 178Q451 217 433.0 243.5Q415 270 374.5 290.5Q334 311 266 333Q170 362 126.0 412.0Q82 462 82 536Q82 586 108.0 626.0Q134 666 183.0 689.0Q232 712 302 712Q368 712 417.5 687.5Q467 663 494.5 619.0Q522 575 522 518H434Q434 546 419.0 573.0Q404 600 374.0 618.0Q344 636 298 636Q243 636 206.0 609.5Q169 583 169 537Q169 502 185.5 478.0Q202 454 240.0 434.5Q278 415 343 393Q404 373 447.5 346.5Q491 320 514.5 281.0Q538 242 538 184Q538 127 509.0 83.0Q480 39 428.0 13.5Q376 -12 307 -12Z" transform="translate(4953.85 0)"/><path d="M307 -12Q233 -12 178.5 16.0Q124 44 94.5 94.0Q65 144 64 211H152Q153 151 192.5 107.5Q232 64 307 64Q376 64 413.5 97.5Q451 131 451 178Q451 217 433.0 243.5Q415 270 374.5 290.5Q334 311 266 333Q170 362 126.0 412.0Q82 462 82 536Q82 586 108.0 626.0Q134 666 183.0 689.0Q232 712 302 712Q368 712 417.5 687.5Q467 663 494.5 619.0Q522 575 522 518H434Q434 546 419.0 573.0Q404 600 374.0 618.0Q344 636 298 636Q243 636 206.0 609.5Q169 583 169 537Q169 502 185.5 478.0Q202 454 240.0 434.5Q278 415 343 393Q404 373 447.5 346.5Q491 320 514.5 281.0Q538 242 538 184Q538 127 509.0 83.0Q480 39 428.0 13.5Q376 -12 307 -12Z" transform="translate(6369.23 0)"/><path d="M258 0V275L31 700H126L300 360L474 700H569L342 275V0Z" transform="translate(7076.92 0)"/><path d="M307 -12Q233 -12 178.5 16.0Q124 44 94.5 94.0Q65 144 64 211H152Q153 151 192.5 107.5Q232 64 307 64Q376 64 413.5 97.5Q451 131 451 178Q451 217 433.0 243.5Q415 270 374.5 290.5Q334 311 266 333Q170 362 126.0 412.0Q82 462 82 536Q82 586 108.0 626.0Q134 666 183.0 689.0Q232 712 302 712Q368 712 417.5 687.5Q467 663 494.5 619.0Q522 575 522 518H434Q434 546 419.0 573.0Q404 600 374.0 618.0Q344 636 298 636Q243 636 206.0 609.5Q169 583 169 537Q169 502 185.5 478.0Q202 454 240.0 434.5Q278 415 343 393Q404 373 447.5 346.5Q491 320 514.5 281.0Q538 242 538 184Q538 127 509.0 83.0Q480 39 428.0 13.5Q376 -12 307 -12Z" transform="translate(7784.62 0)"/><path d="M258 0V624H70V700H530V624H342V0Z" transform="translate(8492.31 0)"/><path d="M86 0V700H523V624H170V391H493V315H170V76H523V0Z" transform="translate(9200.00 0)"/><path d="M50 0V700H140L300 367L460 700H550V0H468V538L332 255H268L132 537V0Z" transform="translate(9907.69 0)"/><path d="M307 -12Q233 -12 178.5 16.0Q124 44 94.5 94.0Q65 144 64 211H152Q153 151 192.5 107.5Q232 64 307 64Q376 64 413.5 97.5Q451 131 451 178Q451 217 433.0 243.5Q415 270 374.5 290.5Q334 311 266 333Q170 362 126.0 412.0Q82 462 82 536Q82 586 108.0 626.0Q134 666 183.0 689.0Q232 712 302 712Q368 712 417.5 687.5Q467 663 494.5 619.0Q522 575 522 518H434Q434 546 419.0 573.0Q404 600 374.0 618.0Q344 636 298 636Q243 636 206.0 609.5Q169 583 169 537Q169 502 185.5 478.0Q202 454 240.0 434.5Q278 415 343 393Q404 373 447.5 346.5Q491 320 514.5 281.0Q538 242 538 184Q538 127 509.0 83.0Q480 39 428.0 13.5Q376 -12 307 -12Z" transform="translate(10615.38 0)"/><path d="M86 0V700H523V624H170V391H493V315H170V76H523V0Z" transform="translate(12030.77 0)"/><path d="M57 0V700H143L461 147V700H544V0H457L139 553V0Z" transform="translate(12738.46 0)"/><path d="M293 -12Q219 -12 161.0 31.5Q103 75 70.5 156.0Q38 237 38 350Q38 462 71.0 543.0Q104 624 164.5 668.0Q225 712 308 712Q407 712 469.5 654.0Q532 596 544 498H451Q441 558 404.5 595.5Q368 633 308 633Q222 633 173.0 558.0Q124 483 124 350Q124 215 173.0 141.0Q222 67 300 67Q356 67 392.0 100.5Q428 134 446.5 186.5Q465 239 467 295H311V367H553V0H476L469 106H465Q444 52 403.5 20.0Q363 -12 293 -12Z" transform="translate(13446.15 0)"/><path d="M99 0V73H258V627H99V700H501V627H342V73H501V0Z" transform="translate(14153.85 0)"/><path d="M57 0V700H143L461 147V700H544V0H457L139 553V0Z" transform="translate(14861.54 0)"/><path d="M86 0V700H523V624H170V391H493V315H170V76H523V0Z" transform="translate(15569.23 0)"/><path d="M86 0V700H523V624H170V391H493V315H170V76H523V0Z" transform="translate(16276.92 0)"/><path d="M82 0V700H297Q378 700 430.5 673.0Q483 646 509.0 599.5Q535 553 535 494Q535 425 499.5 372.5Q464 320 391 299L543 0H443L302 287H297H166V0ZM166 364H294Q374 364 411.5 400.5Q449 437 449 494Q449 554 412.5 589.0Q376 624 293 624H166Z" transform="translate(16984.62 0)"/></g><g fill="#24292f" transform="translate(-2 91) scale(0.033203 -0.033203)"><path d="M670 0H262V344H654Q765 344 843.5 379.0Q922 414 963.0 501.5Q1004 589 1004 744Q1004 900 962.0 987.5Q920 1075 839.5 1110.5Q759 1146 642 1146H256V1490H664Q894 1490 1061.0 1400.5Q1228 1311 1319.0 1144.0Q1410 977 1410 744Q1410 512 1319.5 345.0Q1229 178 1063.0 89.0Q897 0 670 0ZM500 1490V0H96V1490Z" transform="translate(0.00 0)"/><path d="M96 0V1490H1170V1164H500V912H1114V594H500V326H1166V0Z" transform="translate(1380.61 0)"/><path d="M546 0 46 1490H504L677 912Q733 724 780.0 529.5Q827 335 871 135H781Q823 335 867.0 529.5Q911 724 965 912L1130 1490H1582L1098 0Z" transform="translate(2536.22 0)"/><path d="M46 0 529 1490H1081L1582 0H1124L951 578Q895 766 846.0 968.5Q797 1171 753 1371H845Q803 1171 760.0 968.5Q717 766 663 578L498 0ZM404 286V588H1224V286Z" transform="translate(4064.84 0)"/><path d="M702 -18Q508 -18 363.5 39.5Q219 97 139.0 217.0Q59 337 58 524H442Q446 456 476.5 409.0Q507 362 562.5 338.0Q618 314 696 314Q761 314 805.0 330.0Q849 346 871.5 374.5Q894 403 894 440Q894 474 872.5 499.5Q851 525 802.0 546.0Q753 567 670 584L520 616Q323 658 209.5 759.5Q96 861 96 1036Q96 1178 173.0 1284.5Q250 1391 385.5 1450.5Q521 1510 698 1510Q879 1510 1010.5 1449.5Q1142 1389 1213.5 1279.5Q1285 1170 1286 1024H898Q893 1097 844.5 1137.5Q796 1178 698 1178Q636 1178 596.0 1163.5Q556 1149 537.0 1123.0Q518 1097 518 1064Q518 1029 538.5 1002.5Q559 976 603.5 956.5Q648 937 718 922L840 896Q963 870 1051.5 827.0Q1140 784 1196.5 726.5Q1253 669 1279.5 597.0Q1306 525 1306 440Q1306 293 1233.5 190.5Q1161 88 1026.0 35.0Q891 -18 702 -18Z" transform="translate(5593.45 0)"/><path d="M96 0V1490H500V924H1036V1490H1440V0H1036V598H500V0Z" transform="translate(6858.06 0)"/><path d="M500 1490V0H96V1490Z" transform="translate(8294.67 0)"/><path d="M702 -18Q508 -18 363.5 39.5Q219 97 139.0 217.0Q59 337 58 524H442Q446 456 476.5 409.0Q507 362 562.5 338.0Q618 314 696 314Q761 314 805.0 330.0Q849 346 871.5 374.5Q894 403 894 440Q894 474 872.5 499.5Q851 525 802.0 546.0Q753 567 670 584L520 616Q323 658 209.5 759.5Q96 861 96 1036Q96 1178 173.0 1284.5Q250 1391 385.5 1450.5Q521 1510 698 1510Q879 1510 1010.5 1449.5Q1142 1389 1213.5 1279.5Q1285 1170 1286 1024H898Q893 1097 844.5 1137.5Q796 1178 698 1178Q636 1178 596.0 1163.5Q556 1149 537.0 1123.0Q518 1097 518 1064Q518 1029 538.5 1002.5Q559 976 603.5 956.5Q648 937 718 922L840 896Q963 870 1051.5 827.0Q1140 784 1196.5 726.5Q1253 669 1279.5 597.0Q1306 525 1306 440Q1306 293 1233.5 190.5Q1161 88 1026.0 35.0Q891 -18 702 -18Z" transform="translate(8791.28 0)"/><path d="M96 0V1490H500V924H1036V1490H1440V0H1036V598H500V0Z" transform="translate(10055.89 0)"/></g><g fill="#d91c2a" transform="translate(400 91) scale(0.033203 -0.033203)"><path d="M96 0V1490H500V924H1036V1490H1440V0H1036V598H500V0Z" transform="translate(0.00 0)"/><path d="M46 0 529 1490H1081L1582 0H1124L951 578Q895 766 846.0 968.5Q797 1171 753 1371H845Q803 1171 760.0 968.5Q717 766 663 578L498 0ZM404 286V588H1224V286Z" transform="translate(1436.61 0)"/><path d="M96 0V1490H738Q904 1490 1028.5 1429.5Q1153 1369 1222.5 1255.5Q1292 1142 1292 984Q1292 824 1221.0 714.0Q1150 604 1022.0 548.0Q894 492 724 492H340V806H642Q714 806 765.0 824.0Q816 842 843.0 881.0Q870 920 870 984Q870 1048 843.0 1088.0Q816 1128 765.0 1147.0Q714 1166 642 1166H500V0ZM902 0 538 684H968L1342 0Z" transform="translate(2965.22 0)"/><path d="M702 -18Q508 -18 363.5 39.5Q219 97 139.0 217.0Q59 337 58 524H442Q446 456 476.5 409.0Q507 362 562.5 338.0Q618 314 696 314Q761 314 805.0 330.0Q849 346 871.5 374.5Q894 403 894 440Q894 474 872.5 499.5Q851 525 802.0 546.0Q753 567 670 584L520 616Q323 658 209.5 759.5Q96 861 96 1036Q96 1178 173.0 1284.5Q250 1391 385.5 1450.5Q521 1510 698 1510Q879 1510 1010.5 1449.5Q1142 1389 1213.5 1279.5Q1285 1170 1286 1024H898Q893 1097 844.5 1137.5Q796 1178 698 1178Q636 1178 596.0 1163.5Q556 1149 537.0 1123.0Q518 1097 518 1064Q518 1029 538.5 1002.5Q559 976 603.5 956.5Q648 937 718 922L840 896Q963 870 1051.5 827.0Q1140 784 1196.5 726.5Q1253 669 1279.5 597.0Q1306 525 1306 440Q1306 293 1233.5 190.5Q1161 88 1026.0 35.0Q891 -18 702 -18Z" transform="translate(4233.84 0)"/><path d="M96 0V1490H500V924H1036V1490H1440V0H1036V598H500V0Z" transform="translate(5498.45 0)"/><path d="M382 -24Q294 -24 235.0 34.0Q176 92 176 179Q176 266 235.0 324.0Q294 382 382 382Q470 382 529.0 324.0Q588 266 588 179Q588 92 529.0 34.0Q470 -24 382 -24Z" transform="translate(6935.06 0)"/></g><g fill="#57606a" transform="translate(0 130) scale(0.012000 -0.012000)"><path d="M50 0V700H140L300 367L460 700H550V0H468V538L332 255H268L132 537V0Z" transform="translate(0.00 0)"/><path d="M86 0V700H523V624H170V391H493V315H170V76H523V0Z" transform="translate(650.00 0)"/><path d="M305 -12Q220 -12 158.5 33.0Q97 78 64.5 159.0Q32 240 32 350Q32 459 64.5 540.5Q97 622 158.5 667.0Q220 712 305 712Q413 712 479.0 652.5Q545 593 556 494H463Q453 553 413.0 593.0Q373 633 305 633Q218 633 168.0 557.5Q118 482 118 350Q118 217 168.0 142.0Q218 67 305 67Q376 67 414.5 105.0Q453 143 463 203H556Q540 103 476.5 45.5Q413 -12 305 -12Z" transform="translate(1300.00 0)"/><path d="M47 0V700H131V398H470V700H554V0H470V322H131V0Z" transform="translate(1950.00 0)"/><path d="M33 0 252 700H349L567 0H475L424 174H176L125 0ZM298 582 197 244H403L302 582Z" transform="translate(2600.00 0)"/><path d="M57 0V700H143L461 147V700H544V0H457L139 553V0Z" transform="translate(3250.00 0)"/><path d="M99 0V73H258V627H99V700H501V627H342V73H501V0Z" transform="translate(3900.00 0)"/><path d="M305 -12Q220 -12 158.5 33.0Q97 78 64.5 159.0Q32 240 32 350Q32 459 64.5 540.5Q97 622 158.5 667.0Q220 712 305 712Q413 712 479.0 652.5Q545 593 556 494H463Q453 553 413.0 593.0Q373 633 305 633Q218 633 168.0 557.5Q118 482 118 350Q118 217 168.0 142.0Q218 67 305 67Q376 67 414.5 105.0Q453 143 463 203H556Q540 103 476.5 45.5Q413 -12 305 -12Z" transform="translate(4550.00 0)"/><path d="M33 0 252 700H349L567 0H475L424 174H176L125 0ZM298 582 197 244H403L302 582Z" transform="translate(5200.00 0)"/><path d="M87 0V700H171V76H526V0Z" transform="translate(5850.00 0)"/><path d="M86 0V700H523V624H170V391H493V315H170V76H523V0Z" transform="translate(7150.00 0)"/><path d="M57 0V700H143L461 147V700H544V0H457L139 553V0Z" transform="translate(7800.00 0)"/><path d="M293 -12Q219 -12 161.0 31.5Q103 75 70.5 156.0Q38 237 38 350Q38 462 71.0 543.0Q104 624 164.5 668.0Q225 712 308 712Q407 712 469.5 654.0Q532 596 544 498H451Q441 558 404.5 595.5Q368 633 308 633Q222 633 173.0 558.0Q124 483 124 350Q124 215 173.0 141.0Q222 67 300 67Q356 67 392.0 100.5Q428 134 446.5 186.5Q465 239 467 295H311V367H553V0H476L469 106H465Q444 52 403.5 20.0Q363 -12 293 -12Z" transform="translate(8450.00 0)"/><path d="M99 0V73H258V627H99V700H501V627H342V73H501V0Z" transform="translate(9100.00 0)"/><path d="M57 0V700H143L461 147V700H544V0H457L139 553V0Z" transform="translate(9750.00 0)"/><path d="M86 0V700H523V624H170V391H493V315H170V76H523V0Z" transform="translate(10400.00 0)"/><path d="M86 0V700H523V624H170V391H493V315H170V76H523V0Z" transform="translate(11050.00 0)"/><path d="M82 0V700H297Q378 700 430.5 673.0Q483 646 509.0 599.5Q535 553 535 494Q535 425 499.5 372.5Q464 320 391 299L543 0H443L302 287H297H166V0ZM166 364H294Q374 364 411.5 400.5Q449 437 449 494Q449 554 412.5 589.0Q376 624 293 624H166Z" transform="translate(11700.00 0)"/><path d="M99 0V73H258V627H99V700H501V627H342V73H501V0Z" transform="translate(12350.00 0)"/><path d="M57 0V700H143L461 147V700H544V0H457L139 553V0Z" transform="translate(13000.00 0)"/><path d="M293 -12Q219 -12 161.0 31.5Q103 75 70.5 156.0Q38 237 38 350Q38 462 71.0 543.0Q104 624 164.5 668.0Q225 712 308 712Q407 712 469.5 654.0Q532 596 544 498H451Q441 558 404.5 595.5Q368 633 308 633Q222 633 173.0 558.0Q124 483 124 350Q124 215 173.0 141.0Q222 67 300 67Q356 67 392.0 100.5Q428 134 446.5 186.5Q465 239 467 295H311V367H553V0H476L469 106H465Q444 52 403.5 20.0Q363 -12 293 -12Z" transform="translate(13650.00 0)"/><path d="M83 -90 429 760H517L170 -90Z" transform="translate(14950.00 0)"/><path d="M82 0V700H297Q378 700 430.5 673.0Q483 646 509.0 599.5Q535 553 535 494Q535 425 499.5 372.5Q464 320 391 299L543 0H443L302 287H297H166V0ZM166 364H294Q374 364 411.5 400.5Q449 437 449 494Q449 554 412.5 589.0Q376 624 293 624H166Z" transform="translate(16250.00 0)"/><path d="M300 -12Q215 -12 154.0 33.0Q93 78 60.5 159.5Q28 241 28 350Q28 459 60.5 540.5Q93 622 154.0 667.0Q215 712 300 712Q385 712 446.0 667.0Q507 622 539.5 540.5Q572 459 572 350Q572 241 539.5 159.5Q507 78 446.0 33.0Q385 -12 300 -12ZM300 67Q383 67 434.5 141.0Q486 215 486 350Q486 485 434.5 559.0Q383 633 300 633Q216 633 165.0 559.0Q114 485 114 350Q114 215 165.0 141.0Q216 67 300 67Z" transform="translate(16900.00 0)"/><path d="M66 0V700H299Q408 700 463.0 650.0Q518 600 518 522Q518 461 485.0 421.5Q452 382 411 366V359Q460 343 497.0 301.0Q534 259 534 193Q534 139 507.5 95.5Q481 52 430.5 26.0Q380 0 307 0ZM150 398H293Q360 398 395.5 427.5Q431 457 431 513Q431 566 396.0 595.0Q361 624 290 624H150ZM150 77H298Q370 77 409.0 109.5Q448 142 448 201Q448 260 407.0 292.5Q366 325 296 325H150Z" transform="translate(17550.00 0)"/><path d="M300 -12Q215 -12 154.0 33.0Q93 78 60.5 159.5Q28 241 28 350Q28 459 60.5 540.5Q93 622 154.0 667.0Q215 712 300 712Q385 712 446.0 667.0Q507 622 539.5 540.5Q572 459 572 350Q572 241 539.5 159.5Q507 78 446.0 33.0Q385 -12 300 -12ZM300 67Q383 67 434.5 141.0Q486 215 486 350Q486 485 434.5 559.0Q383 633 300 633Q216 633 165.0 559.0Q114 485 114 350Q114 215 165.0 141.0Q216 67 300 67Z" transform="translate(18200.00 0)"/><path d="M258 0V624H70V700H530V624H342V0Z" transform="translate(18850.00 0)"/><path d="M99 0V73H258V627H99V700H501V627H342V73H501V0Z" transform="translate(19500.00 0)"/><path d="M305 -12Q220 -12 158.5 33.0Q97 78 64.5 159.0Q32 240 32 350Q32 459 64.5 540.5Q97 622 158.5 667.0Q220 712 305 712Q413 712 479.0 652.5Q545 593 556 494H463Q453 553 413.0 593.0Q373 633 305 633Q218 633 168.0 557.5Q118 482 118 350Q118 217 168.0 142.0Q218 67 305 67Q376 67 414.5 105.0Q453 143 463 203H556Q540 103 476.5 45.5Q413 -12 305 -12Z" transform="translate(20150.00 0)"/><path d="M307 -12Q233 -12 178.5 16.0Q124 44 94.5 94.0Q65 144 64 211H152Q153 151 192.5 107.5Q232 64 307 64Q376 64 413.5 97.5Q451 131 451 178Q451 217 433.0 243.5Q415 270 374.5 290.5Q334 311 266 333Q170 362 126.0 412.0Q82 462 82 536Q82 586 108.0 626.0Q134 666 183.0 689.0Q232 712 302 712Q368 712 417.5 687.5Q467 663 494.5 619.0Q522 575 522 518H434Q434 546 419.0 573.0Q404 600 374.0 618.0Q344 636 298 636Q243 636 206.0 609.5Q169 583 169 537Q169 502 185.5 478.0Q202 454 240.0 434.5Q278 415 343 393Q404 373 447.5 346.5Q491 320 514.5 281.0Q538 242 538 184Q538 127 509.0 83.0Q480 39 428.0 13.5Q376 -12 307 -12Z" transform="translate(20800.00 0)"/><path d="M250 -12Q186 -12 137.5 14.5Q89 41 62.0 89.0Q35 137 35 202Q35 265 67.5 316.5Q100 368 161 403Q134 442 121.5 477.0Q109 512 109 548Q109 619 157.5 665.5Q206 712 289 712Q369 712 416.5 667.0Q464 622 464 553H381Q381 593 353.0 615.5Q325 638 288 638Q243 638 217.5 613.0Q192 588 192 549Q192 518 208.0 486.0Q224 454 257 413L416 215L483 362H572L471 147L589 0H490L428 75Q398 35 354.5 11.5Q311 -12 250 -12ZM119 204Q119 144 155.5 104.0Q192 64 250 64Q292 64 322.0 83.0Q352 102 376 139L207 344Q119 295 119 204Z" transform="translate(22100.00 0)"/><path d="M33 0 252 700H349L567 0H475L424 174H176L125 0ZM298 582 197 244H403L302 582Z" transform="translate(23400.00 0)"/><path d="M299 -12Q229 -12 174.5 17.0Q120 46 88.5 105.5Q57 165 57 255V700H141V252Q141 162 185.0 113.0Q229 64 301 64Q373 64 416.0 113.0Q459 162 459 252V700H543V255Q543 165 511.0 105.5Q479 46 424.0 17.0Q369 -12 299 -12Z" transform="translate(24050.00 0)"/><path d="M258 0V624H70V700H530V624H342V0Z" transform="translate(24700.00 0)"/><path d="M300 -12Q215 -12 154.0 33.0Q93 78 60.5 159.5Q28 241 28 350Q28 459 60.5 540.5Q93 622 154.0 667.0Q215 712 300 712Q385 712 446.0 667.0Q507 622 539.5 540.5Q572 459 572 350Q572 241 539.5 159.5Q507 78 446.0 33.0Q385 -12 300 -12ZM300 67Q383 67 434.5 141.0Q486 215 486 350Q486 485 434.5 559.0Q383 633 300 633Q216 633 165.0 559.0Q114 485 114 350Q114 215 165.0 141.0Q216 67 300 67Z" transform="translate(25350.00 0)"/><path d="M50 0V700H140L300 367L460 700H550V0H468V538L332 255H268L132 537V0Z" transform="translate(26000.00 0)"/><path d="M33 0 252 700H349L567 0H475L424 174H176L125 0ZM298 582 197 244H403L302 582Z" transform="translate(26650.00 0)"/><path d="M258 0V624H70V700H530V624H342V0Z" transform="translate(27300.00 0)"/><path d="M99 0V73H258V627H99V700H501V627H342V73H501V0Z" transform="translate(27950.00 0)"/><path d="M300 -12Q215 -12 154.0 33.0Q93 78 60.5 159.5Q28 241 28 350Q28 459 60.5 540.5Q93 622 154.0 667.0Q215 712 300 712Q385 712 446.0 667.0Q507 622 539.5 540.5Q572 459 572 350Q572 241 539.5 159.5Q507 78 446.0 33.0Q385 -12 300 -12ZM300 67Q383 67 434.5 141.0Q486 215 486 350Q486 485 434.5 559.0Q383 633 300 633Q216 633 165.0 559.0Q114 485 114 350Q114 215 165.0 141.0Q216 67 300 67Z" transform="translate(28600.00 0)"/><path d="M57 0V700H143L461 147V700H544V0H457L139 553V0Z" transform="translate(29250.00 0)"/></g></svg>