<svg xmlns="http://www.w3.org/2000/svg" width="430" height="42" viewBox="0 0 430 42" role="img" aria-label="Build. Test. Validate."><title>Build. Test. Validate.</title><rect width="430" height="42" rx="4" fill="#ffffff"/><g fill="#24292f" transform="translate(3 23) scale(0.008789 -0.008789)"><path d="M106.07897467195606 0V1490H737.920415013732Q906.2405859017395 1490 1020.5007628928898 1443.1000915471468Q1134.7609398840402 1396.2001830942936 1192.6210558437597 1311.9802563320109Q1250.481171803479 1227.7603295697284 1250.481171803479 1115.2402807445835Q1250.481171803479 1031.5604516325907 1214.7211473909065 964.2203844980164Q1178.9611229783338 896.8803173634421 1115.5410131217577 852.4002136100091Q1052.1209032651816 807.9201098565761 967.7606347268843 790.8001220628623V775.0400976502899Q1060.6409520903264 771.9201098565761 1138.0610619469026 727.480103753433Q1215.481171803479 683.0400976502899 1261.981171803479 604.2401281660054Q1308.481171803479 525.4401586817211 1308.481171803479 419.00030515715594Q1308.481171803479 298.20018309429355 1246.8610314311873 203.36011595971925Q1185.2408910588954 108.52004882514495 1069.0808056148917 54.26002441257248Q952.920720170888 0 789.2408910588954 0ZM484.40158681721084 303.52187976808057H693.5996338114129Q803.3587427525175 303.52187976808057 857.4984742142203 345.8815379920659Q911.6382056759231 388.24119621605126 911.6382056759231 465.0009154714678Q911.6382056759231 520.6406469331706 885.9583765639304 560.3203234665853Q860.2785474519377 600 812.7788526090936 621.2797680805616Q765.2791577662496 642.559536161123 700.079584986268 642.559536161123H484.40158681721084ZM484.40158681721084 881.7606347268843H669.8396093988404Q726.079279829112 881.7606347268843 769.5189807750992 900.0604516325907Q812.9586817210864 918.3602685382972 837.7584986267927 952.979951174855Q862.5583155324993 987.5996338114129 862.5583155324993 1037.3192554165396Q862.5583155324993 1108.7989014342386 810.8985352456516 1149.3985352456516Q759.2387549588038 1189.9981690570644 675.8396093988404 1189.9981690570644H484.40158681721084Z" transform="translate(0.00 0)"/><path d="M740.9996948428441 -18.719926762282576Q550.9194995422642 -18.719926762282576 407.9793408605432 48.96005492828807Q265.0391821788221 116.64003661885872 185.5590784253891 240.6000915471468Q106.07897467195606 364.56014647543486 106.07897467195606 532.5203539823009V1490H484.40158681721084V564.2405859017395Q484.40158681721084 489.8010375343302 517.3813854134879 432.70140372291735Q550.361184009765 375.60176991150445 608.0007628928898 343.0019835215136Q665.6403417760147 310.4021971315227 740.9996948428441 310.4021971315227Q817.2390601159598 310.4021971315227 875.2586512053708 343.0019835215136Q933.2782422947818 375.60176991150445 966.1980469942021 432.70140372291735Q999.1178516936222 489.8010375343302 999.1178516936222 564.2405859017395V1490H1377.4404638388771V532.5203539823009Q1377.4404638388771 364.56014647543486 1297.520353982301 240.6000915471468Q1217.6002441257247 116.64003661885872 1074.3400671345744 48.96005492828807Q931.0798901434239 -18.719926762282576 740.9996948428441 -18.719926762282576Z" transform="translate(1319.13 0)"/><path d="M484.40158681721084 1490V0H106.07897467195606V1490Z" transform="translate(2757.14 0)"/><path d="M106.07897467195606 0V1490H484.40158681721084V307.0419285932255H1096.960512664022V0Z" transform="translate(3302.11 0)"/><path d="M667.0003051571559 0H264.75971925541654V322.88214830637776H651.480256332011Q770.9993896856881 322.88214830637776 854.4188892279524 362.0217271895026Q937.8383887702166 401.16130607262744 980.9981690570644 493.7607873054623Q1024.1579493439122 586.3602685382972 1024.1579493439122 744.479951174855Q1024.1579493439122 903.2396704302716 980.1781507476351 995.6591699725359Q936.198352151358 1088.0786695148001 851.4987793713763 1127.5982606042112Q766.7992065913945 1167.1178516936222 643.0798901434239 1167.1178516936222H258.519743667989V1490H664Q892.5601464754349 1490 1058.0602990540128 1400.559993896857Q1223.5604516325907 1311.1199877937138 1313.5405553860237 1144.1799816905707Q1403.5206591394567 977.2399755874276 1403.5206591394567 744.479951174855Q1403.5206591394567 512.3599633811413 1313.92056759231 345.29996948428436Q1224.3204760451633 178.23997558742752 1059.1603906011596 89.11998779371376Q894.0003051571559 0 667.0003051571559 0ZM484.40158681721084 1490V0H106.07897467195606V1490Z" transform="translate(4414.60 0)"/><path d="M371.56106194690267 -22.68013426914861Q287.40067134574304 -22.68013426914861 230.74043332316143 33.10009154714678Q174.0801953005798 88.88031736344217 174.0801953005798 172.16069575831554Q174.0801953005798 255.44107415318888 230.74043332316143 311.2212999694843Q287.40067134574304 367.0015257857797 371.56106194690267 367.0015257857797Q455.72145254806225 367.0015257857797 512.3816905706439 311.2212999694843Q569.0419285932255 255.44107415318888 569.0419285932255 172.16069575831554Q569.0419285932255 88.88031736344217 512.3816905706439 33.10009154714678Q455.72145254806225 -22.68013426914861 371.56106194690267 -22.68013426914861Z" transform="translate(5848.84 0)"/></g><g fill="#24292f" transform="translate(145 23) scale(0.008789 -0.008789)"><path d="M61.03948733597803 1182.9580714067745V1490H1334.881537992066V1182.9580714067745H887.2418065303632V0H508.9191943851083V1182.9580714067745Z" transform="translate(0.00 0)"/><path d="M106.07897467195606 0V1490H1160.1610009154715V1182.9580714067745H484.40158681721084V902.880927677754H1105.0009154714678V602.8790967348184H484.40158681721084V307.0419285932255H1157.7208422337503V0Z" transform="translate(1350.41 0)"/><path d="M696.6005492828807 -18.9599023497101Q506.56014647543486 -18.9599023497101 365.1798291119927 37.880164784864206Q223.79951174855051 94.7202319194385 145.3593530668294 211.5405553860238Q66.91919438510833 328.3608788526091 64.95929203539822 507.9216356423558H426.2815990234971Q430.76155019835215 438.0018309429356 463.48132438205675 390.1019224900824Q496.20109856576136 342.2020140372292 554.2208422337504 317.9020445529448Q612.2405859017395 293.6020750686604 691.3204760451632 293.6020750686604Q760.6400366188587 293.6020750686604 809.019591089411 311.64186756179436Q857.3991455599634 329.6816600549283 882.8388465059505 361.9612755569118Q908.2785474519377 394.24089105889533 908.2785474519377 436.28037839487337Q908.2785474519377 474.83991455599636 884.4987793713763 502.67967653341475Q860.7190112908147 530.5194385108331 809.5592310039669 552.4793408605432Q758.3994507171193 574.4392432102533 675.7594140982605 592.0391821788221L522.1597802868478 626.3189502593835Q327.1995727799817 669.3988404028074 215.31940799511747 770.1189197436679Q103.43924321025328 870.8389990845285 103.43924321025328 1042.5993286542569Q103.43924321025328 1182.6795239548367 179.3593530668294 1287.7396704302714Q255.27946292340556 1392.7998169057064 388.43970094598717 1451.3999084528532Q521.5999389685688 1510 694.6403417760147 1510Q871.5607567897467 1510 1000.8409826060422 1450.519896246567Q1130.1212084223375 1391.039792493134 1200.9012816600548 1283.9395483674093Q1271.6813548977723 1176.8393042416844 1273.0413182789136 1034.7989014342386H909.2788526090936Q903.3189502593835 1112.118462007934 849.7194690265487 1154.8982300884954Q796.1199877937138 1197.677998169057 693.920415013732 1197.677998169057Q627.8408300274641 1197.677998169057 583.9412267317668 1181.138205675923Q540.0416234360696 1164.598413182789 518.5218797680806 1135.1787610619467Q497.00213610009155 1105.7591089411046 497.00213610009155 1068.3195605736955Q497.00213610009155 1028.1600854440037 520.861794324077 999.1403417760147Q544.7214525480623 970.1205981080257 591.8611840097651 949.7806835520294Q639.0009154714678 929.440768996033 707.0811107720476 914.440768996033L832.3207812023192 886.6409520903266Q947.7615501983521 861.8408300274641 1034.341745498932 820.6406469331705Q1120.9219407995117 779.440463838877 1178.5618248397925 723.2603295697284Q1236.2017088800733 667.0801953005798 1264.6215135794935 595.1401891974367Q1293.0413182789136 523.2001830942936 1293.0413182789136 435.92041501373205Q1293.0413182789136 291.9201098565761 1221.6212084223375 189.96005492828806Q1150.2010985657614 88 1016.880927677754 34.520048825144954Q883.5607567897467 -18.9599023497101 696.6005492828807 -18.9599023497101Z" transform="translate(2557.02 0)"/><path d="M61.03948733597803 1182.9580714067745V1490H1334.881537992066V1182.9580714067745H887.2418065303632V0H508.9191943851083V1182.9580714067745Z" transform="translate(3869.51 0)"/><path d="M371.56106194690267 -22.68013426914861Q287.40067134574304 -22.68013426914861 230.74043332316143 33.10009154714678Q174.0801953005798 88.88031736344217 174.0801953005798 172.16069575831554Q174.0801953005798 255.44107415318888 230.74043332316143 311.2212999694843Q287.40067134574304 367.0015257857797 371.56106194690267 367.0015257857797Q455.72145254806225 367.0015257857797 512.3816905706439 311.2212999694843Q569.0419285932255 255.44107415318888 569.0419285932255 172.16069575831554Q569.0419285932255 88.88031736344217 512.3816905706439 33.10009154714678Q455.72145254806225 -22.68013426914861 371.56106194690267 -22.68013426914861Z" transform="translate(5219.92 0)"/></g><g fill="#24292f" transform="translate(258 23) scale(0.008789 -0.008789)"><path d="M552.4793408605432 0 46.719926762282576 1490H473.76307598413183L663.8013426914861 875.2837351235887Q716.321696673787 700.72236801953 762.5417760146474 514.321544095209Q808.761855355508 327.920720170888 853.9617332926457 129.60054928288068H770.3210863594751Q813.7609398840402 328.5206591394568 857.2809887091852 514.6215135794935Q900.8010375343301 700.72236801953 951.4413793103448 875.2837351235887L1133.4796460176992 1490H1555.4826975892584L1064.5234055538604 0Z" transform="translate(0.00 0)"/><path d="M46.719926762282576 0 536.6792187976808 1490H1048.8432712847116L1555.4826975892584 0H1128.4395483674093L938.2812938663412 614.7162648764113Q885.5209642966128 789.9975587427525 837.7808361306072 982.8985352456515Q790.0407079646018 1175.7995117485505 744.7208422337504 1374.5996338114128H830.0015257857797Q786.5616722612145 1175.5595361611229 743.9816295392127 982.4185840707964Q701.4015868172108 789.27763198047 650.7612450411962 614.7162648764113L468.7229783338419 0ZM394.40097650289897 301.59841318278916V587.2800732377174H1207.801647848642V301.59841318278916Z" transform="translate(1556.69 0)"/><path d="M106.07897467195606 0V1490H484.40158681721084V307.0419285932255H1096.960512664022V0Z" transform="translate(3113.38 0)"/><path d="M484.40158681721084 1490V0H106.07897467195606V1490Z" transform="translate(4225.87 0)"/><path d="M667.0003051571559 0H264.75971925541654V322.88214830637776H651.480256332011Q770.9993896856881 322.88214830637776 854.4188892279524 362.0217271895026Q937.8383887702166 401.16130607262744 980.9981690570644 493.7607873054623Q1024.1579493439122 586.3602685382972 1024.1579493439122 744.479951174855Q1024.1579493439122 903.2396704302716 980.1781507476351 995.6591699725359Q936.198352151358 1088.0786695148001 851.4987793713763 1127.5982606042112Q766.7992065913945 1167.1178516936222 643.0798901434239 1167.1178516936222H258.519743667989V1490H664Q892.5601464754349 1490 1058.0602990540128 1400.559993896857Q1223.5604516325907 1311.1199877937138 1313.5405553860237 1144.1799816905707Q1403.5206591394567 977.2399755874276 1403.5206591394567 744.479951174855Q1403.5206591394567 512.3599633811413 1313.92056759231 345.29996948428436Q1224.3204760451633 178.23997558742752 1059.1603906011596 89.11998779371376Q894.0003051571559 0 667.0003051571559 0ZM484.40158681721084 1490V0H106.07897467195606V1490Z" transform="translate(4770.84 0)"/><path d="M46.719926762282576 0 536.6792187976808 1490H1048.8432712847116L1555.4826975892584 0H1128.4395483674093L938.2812938663412 614.7162648764113Q885.5209642966128 789.9975587427525 837.7808361306072 982.8985352456515Q790.0407079646018 1175.7995117485505 744.7208422337504 1374.5996338114128H830.0015257857797Q786.5616722612145 1175.5595361611229 743.9816295392127 982.4185840707964Q701.4015868172108 789.27763198047 650.7612450411962 614.7162648764113L468.7229783338419 0ZM394.40097650289897 301.59841318278916V587.2800732377174H1207.801647848642V301.59841318278916Z" transform="translate(6205.09 0)"/><path d="M61.03948733597803 1182.9580714067745V1490H1334.881537992066V1182.9580714067745H887.2418065303632V0H508.9191943851083V1182.9580714067745Z" transform="translate(7761.78 0)"/><path d="M106.07897467195606 0V1490H1160.1610009154715V1182.9580714067745H484.40158681721084V902.880927677754H1105.0009154714678V602.8790967348184H484.40158681721084V307.0419285932255H1157.7208422337503V0Z" transform="translate(9112.19 0)"/><path d="M371.56106194690267 -22.68013426914861Q287.40067134574304 -22.68013426914861 230.74043332316143 33.10009154714678Q174.0801953005798 88.88031736344217 174.0801953005798 172.16069575831554Q174.0801953005798 255.44107415318888 230.74043332316143 311.2212999694843Q287.40067134574304 367.0015257857797 371.56106194690267 367.0015257857797Q455.72145254806225 367.0015257857797 512.3816905706439 311.2212999694843Q569.0419285932255 255.44107415318888 569.0419285932255 172.16069575831554Q569.0419285932255 88.88031736344217 512.3816905706439 33.10009154714678Q455.72145254806225 -22.68013426914861 371.56106194690267 -22.68013426914861Z" transform="translate(10318.80 0)"/></g><path d="M3 36H420" fill="none" stroke="#d0d7de" stroke-width="1" stroke-linecap="round" /><circle cx="3.0" cy="36" r="2" fill="#d91c2a" stroke="#d91c2a" stroke-width="1"/></svg>